<svg xmlns="http://www.w3.org/2000/svg" viewBox="0 0 128 128">
  <rect width="128" height="128" fill="#050505" rx="16"/>
  <g fill="#ff1a1a">
    <rect x="24" y="24" width="12" height="12"/>
    <rect x="42" y="24" width="12" height="12"/>
    <rect x="60" y="24" width="12" height="12"/>
    <rect x="24" y="42" width="12" height="12"/>
    <rect x="60" y="42" width="12" height="12"/>
    <rect x="78" y="42" width="12" height="12"/>
    <rect x="96" y="42" width="12" height="12"/>
    <rect x="24" y="60" width="12" height="12"/>
    <rect x="42" y="60" width="12" height="12"/>
    <rect x="60" y="60" width="12" height="12"/>
    <rect x="78" y="60" width="12" height="12"/>
    <rect x="96" y="60" width="12" height="12"/>
    <rect x="24" y="78" width="12" height="12"/>
    <rect x="60" y="78" width="12" height="12"/>
    <rect x="96" y="78" width="12" height="12"/>
    <rect x="24" y="96" width="12" height="12"/>
    <rect x="42" y="96" width="12" height="12"/>
    <rect x="60" y="96" width="12" height="12"/>
    <rect x="78" y="96" width="12" height="12"/>
    <rect x="96" y="96" width="12" height="12"/>
  </g>
</svg>